<svg width="13" height="14" viewBox="0 0 13 14" fill="none" xmlns="http://www.w3.org/2000/svg">
<path d="M3.375 3.25V1.375C3.375 1.20924 3.44085 1.05027 3.55806 0.933058C3.67527 0.815848 3.83424 0.75 4 0.75H11.5C11.6658 0.75 11.8247 0.815848 11.9419 0.933058C12.0592 1.05027 12.125 1.20924 12.125 1.375V10.125C12.125 10.2908 12.0592 10.4497 11.9419 10.5669C11.8247 10.6842 11.6658 10.75 11.5 10.75H9.625V12.625C9.625 12.97 9.34375 13.25 8.99562 13.25H1.50437C1.42195 13.2505 1.34025 13.2347 1.26395 13.2035C1.18765 13.1723 1.11827 13.1264 1.05979 13.0683C1.0013 13.0102 0.954871 12.9412 0.923159 12.8651C0.891447 12.789 0.875081 12.7074 0.875 12.625L0.876875 3.875C0.876875 3.53 1.15813 3.25 1.50625 3.25H3.375ZM2.12687 4.5L2.125 12H8.375V4.5H2.12687ZM4.625 3.25H9.625V9.5H10.875V2H4.625V3.25Z" fill="white"/>
</svg>
