<svg width="36" height="36" viewBox="0 0 36 36" fill="none" xmlns="http://www.w3.org/2000/svg">
<rect width="36" height="36" rx="8" fill="#9957E5"/>
<g clip-path="url(#clip0_4496_33286)">
<path d="M19.6665 9.6665C21.1915 9.66578 22.6706 10.1879 23.8572 11.1458C25.0438 12.1037 25.8661 13.4394 26.187 14.9302C26.508 16.4211 26.3081 17.9768 25.6207 19.3381C24.9333 20.6994 23.8 21.7839 22.4098 22.4107C21.9654 23.3931 21.2894 24.2531 20.4397 24.9169C19.59 25.5806 18.5919 26.0284 17.5312 26.2218C16.4704 26.4152 15.3786 26.3483 14.3493 26.0271C13.32 25.7058 12.384 25.1397 11.6216 24.3772C10.8591 23.6148 10.293 22.6788 9.97174 21.6495C9.65047 20.6203 9.58366 19.5284 9.77702 18.4676C9.97039 17.4069 10.4182 16.4088 11.0819 15.5591C11.7457 14.7094 12.6057 14.0334 13.5881 13.589C14.1166 12.4197 14.9711 11.4278 16.0493 10.732C17.1274 10.0363 18.3833 9.66631 19.6665 9.6665ZM17.1665 15.4998H15.4998V16.3332C14.9582 16.3319 14.4374 16.5415 14.0478 16.9176C13.6582 17.2938 13.4303 17.8069 13.4125 18.3481C13.3948 18.8894 13.5885 19.4163 13.9526 19.8172C14.3167 20.2181 14.8226 20.4615 15.3631 20.4957L15.4998 20.4998H17.1665L17.2415 20.5065C17.3375 20.5239 17.4245 20.5745 17.487 20.6494C17.5496 20.7243 17.5839 20.8189 17.5839 20.9165C17.5839 21.0141 17.5496 21.1087 17.487 21.1836C17.4245 21.2585 17.3375 21.3091 17.2415 21.3265L17.1665 21.3332H13.8331V22.9998H15.4998V23.8332H17.1665V22.9998C17.708 23.0012 18.2288 22.7915 18.6185 22.4154C19.0081 22.0392 19.236 21.5262 19.2538 20.9849C19.2715 20.4436 19.0778 19.9167 18.7137 19.5158C18.3496 19.1149 17.8436 18.8715 17.3031 18.8373L17.1665 18.8332H15.4998L15.4248 18.8265C15.3287 18.8091 15.2418 18.7585 15.1792 18.6836C15.1167 18.6087 15.0824 18.5141 15.0824 18.4165C15.0824 18.3189 15.1167 18.2243 15.1792 18.1494C15.2418 18.0745 15.3287 18.0239 15.4248 18.0065L15.4998 17.9998H18.8331V16.3332H17.1665V15.4998ZM19.6665 11.3332C18.9604 11.3323 18.2622 11.4815 17.618 11.7706C16.9738 12.0598 16.3984 12.4825 15.9298 13.0107C16.8717 12.9535 17.815 13.0969 18.6973 13.4315C19.5796 13.766 20.3809 14.284 21.0481 14.9513C21.7153 15.6186 22.2332 16.4199 22.5677 17.3023C22.9021 18.1846 23.0454 19.128 22.9881 20.0698C23.7458 19.3962 24.2808 18.5081 24.5222 17.5234C24.7635 16.5387 24.6998 15.5039 24.3395 14.5563C23.9792 13.6086 23.3393 12.7929 22.5048 12.2172C21.6702 11.6416 20.6803 11.3333 19.6665 11.3332Z" fill="white"/>
</g>
<defs>
<clipPath id="clip0_4496_33286">
<rect width="20" height="20" fill="white" transform="translate(8 8)"/>
</clipPath>
</defs>
</svg>
