<svg width="20" height="20" viewBox="0 0 20 20" fill="none" xmlns="http://www.w3.org/2000/svg">
<path fill-rule="evenodd" clip-rule="evenodd" d="M17.2 10.1703C17.2 9.6385 17.1523 9.12714 17.0636 8.63623H10V11.5374H14.0364C13.8625 12.4749 13.3341 13.2692 12.5398 13.801V15.6828H14.9636C16.3818 14.3771 17.2 12.4544 17.2 10.1703Z" fill="#4285F4"/>
<path fill-rule="evenodd" clip-rule="evenodd" d="M10.0001 17.4998C12.0251 17.4998 13.7229 16.8282 14.9638 15.6828L12.5399 13.8009C11.8683 14.2509 11.0092 14.5168 10.0001 14.5168C8.04672 14.5168 6.39331 13.1975 5.80353 11.4248H3.29785V13.368C4.53194 15.8191 7.06831 17.4998 10.0001 17.4998Z" fill="#34A853"/>
<path fill-rule="evenodd" clip-rule="evenodd" d="M5.80341 11.425C5.65341 10.975 5.56818 10.4943 5.56818 10C5.56818 9.5057 5.65341 9.02502 5.80341 8.57502V6.63184H3.29773C2.78977 7.64434 2.5 8.78979 2.5 10C2.5 11.2102 2.78977 12.3557 3.29773 13.3682L5.80341 11.425Z" fill="#FBBC05"/>
<path fill-rule="evenodd" clip-rule="evenodd" d="M10.0001 5.48295C11.1013 5.48295 12.0899 5.86136 12.8672 6.60455L15.0183 4.45341C13.7194 3.24318 12.0217 2.5 10.0001 2.5C7.06831 2.5 4.53194 4.18068 3.29785 6.63182L5.80353 8.575C6.39331 6.80227 8.04672 5.48295 10.0001 5.48295Z" fill="#EA4335"/>
</svg>
