<svg width="18" height="18" viewBox="0 0 18 18" fill="none" xmlns="http://www.w3.org/2000/svg">
<g clip-path="url(#clip0_4535_32745)">
<path d="M3.2627 13.9502V10.5752H6.6377" stroke="white" stroke-width="1.6" stroke-linecap="round" stroke-linejoin="round"/>
<path d="M15.6377 4.9502V8.3252H12.2627" stroke="white" stroke-width="1.6" stroke-linecap="round" stroke-linejoin="round"/>
<path d="M4.67457 7.76283C4.95985 6.95665 5.44471 6.23587 6.0839 5.66775C6.72308 5.09964 7.49577 4.7027 8.32986 4.51397C9.16394 4.32525 10.0322 4.3509 10.8537 4.58851C11.6752 4.82613 12.4232 5.26798 13.0277 5.87283L15.6377 8.32533M3.2627 10.5753L5.8727 13.0278C6.47724 13.6327 7.22516 14.0745 8.04665 14.3121C8.86815 14.5498 9.73645 14.5754 10.5705 14.3867C11.4046 14.198 12.1773 13.801 12.8165 13.2329C13.4557 12.6648 13.9405 11.944 14.2258 11.1378" stroke="white" stroke-width="1.6" stroke-linecap="round" stroke-linejoin="round"/>
</g>
<defs>
<clipPath id="clip0_4535_32745">
<rect width="13.5" height="13.5" fill="white" transform="translate(2.7002 2.7002)"/>
</clipPath>
</defs>
</svg>
