<svg width="24" height="24" viewBox="0 0 24 24" fill="none" xmlns="http://www.w3.org/2000/svg">
<g clip-path="url(#clip0_4622_1957)">
<path d="M16.2207 9.41886C15.9363 9.26125 15.5707 9.26125 15.2457 9.41886L12.9707 10.7192L11.427 11.5466L9.19258 12.8469C8.9082 13.0045 8.54258 13.0045 8.21758 12.8469L6.4707 11.8224C6.18633 11.6648 5.9832 11.3496 5.9832 10.995V9.02483C5.9832 8.70961 6.1457 8.39438 6.4707 8.19737L8.21758 7.21229C8.50195 7.05468 8.86758 7.05468 9.19258 7.21229L10.9395 8.23677C11.2238 8.39438 11.427 8.70961 11.427 9.06423V10.3645L12.9707 9.49766V8.15796C12.9707 7.84274 12.8082 7.52752 12.4832 7.3305L9.2332 5.47856C8.94883 5.32095 8.5832 5.32095 8.2582 5.47856L4.92695 7.3699C4.60195 7.52752 4.43945 7.84274 4.43945 8.15796V11.8618C4.43945 12.1771 4.60195 12.4923 4.92695 12.6893L8.21758 14.5412C8.50195 14.6989 8.86758 14.6989 9.19258 14.5412L11.427 13.2804L12.9707 12.4135L15.2051 11.1526C15.4895 10.995 15.8551 10.995 16.1801 11.1526L17.927 12.1377C18.2113 12.2953 18.4145 12.6105 18.4145 12.9651V14.9353C18.4145 15.2505 18.252 15.5657 17.927 15.7627L16.2207 16.7478C15.9363 16.9054 15.5707 16.9054 15.2457 16.7478L13.4988 15.7627C13.2145 15.6051 13.0113 15.2899 13.0113 14.9353V13.6744L11.4676 14.5412V15.8415C11.4676 16.1568 11.6301 16.472 11.9551 16.669L15.2457 18.5209C15.5301 18.6786 15.8957 18.6786 16.2207 18.5209L19.5113 16.669C19.7957 16.5114 19.9988 16.1962 19.9988 15.8415V12.0983C19.9988 11.783 19.8363 11.4678 19.5113 11.2708L16.2207 9.41886Z" fill="#8247E5"/>
</g>
<defs>
<clipPath id="clip0_4622_1957">
<rect width="15.6" height="13.2" fill="white" transform="translate(4.43945 5.3999)"/>
</clipPath>
</defs>
</svg>
