<svg width="36" height="36" viewBox="0 0 36 36" fill="none" xmlns="http://www.w3.org/2000/svg">
<rect width="36" height="36" rx="8" fill="#9957E5"/>
<g clip-path="url(#clip0_4496_33270)">
<path d="M23.8333 16.3332H24.6667C24.8877 16.3332 25.0996 16.421 25.2559 16.5772C25.4122 16.7335 25.5 16.9455 25.5 17.1665V25.4998C25.5 25.7208 25.4122 25.9328 25.2559 26.0891C25.0996 26.2454 24.8877 26.3332 24.6667 26.3332H11.3333C11.1123 26.3332 10.9004 26.2454 10.7441 26.0891C10.5878 25.9328 10.5 25.7208 10.5 25.4998V17.1665C10.5 16.9455 10.5878 16.7335 10.7441 16.5772C10.9004 16.421 11.1123 16.3332 11.3333 16.3332H12.1667V15.4998C12.1667 14.7338 12.3176 13.9752 12.6107 13.2675C12.9039 12.5598 13.3335 11.9167 13.8752 11.375C14.4169 10.8334 15.0599 10.4037 15.7677 10.1105C16.4754 9.81739 17.234 9.6665 18 9.6665C18.766 9.6665 19.5246 9.81739 20.2323 10.1105C20.9401 10.4037 21.5831 10.8334 22.1248 11.375C22.6665 11.9167 23.0961 12.5598 23.3893 13.2675C23.6825 13.9752 23.8333 14.7338 23.8333 15.4998V16.3332ZM22.1667 16.3332V15.4998C22.1667 14.3948 21.7277 13.335 20.9463 12.5536C20.1649 11.7722 19.1051 11.3332 18 11.3332C16.8949 11.3332 15.8351 11.7722 15.0537 12.5536C14.2723 13.335 13.8333 14.3948 13.8333 15.4998V16.3332H22.1667ZM17.1667 19.6665V22.9998H18.8333V19.6665H17.1667Z" fill="white"/>
</g>
<defs>
<clipPath id="clip0_4496_33270">
<rect width="20" height="20" fill="white" transform="translate(8 8)"/>
</clipPath>
</defs>
</svg>
